<svg xmlns="http://www.w3.org/2000/svg" xmlns:xlink="http://www.w3.org/1999/xlink" viewBox="0 0 84.94 148.32"><defs><style>.cls-1{isolation:isolate;}.cls-2{fill:url(#linear-gradient);}.cls-3{mix-blend-mode:color-dodge;}.cls-4{fill:url(#radial-gradient);}.cls-5{fill:url(#radial-gradient-2);}.cls-6{fill:url(#radial-gradient-3);}.cls-7{fill:url(#radial-gradient-4);}.cls-8{fill:url(#radial-gradient-5);}.cls-9{fill:url(#radial-gradient-6);}.cls-10{fill:url(#radial-gradient-8);}.cls-11{fill:url(#radial-gradient-9);}.cls-12{fill:url(#radial-gradient-10);}.cls-13{fill:url(#radial-gradient-11);}.cls-14{fill:url(#radial-gradient-12);}.cls-15{fill:url(#radial-gradient-13);}.cls-16{fill:url(#radial-gradient-14);}.cls-17{fill:url(#radial-gradient-15);}.cls-18{fill:url(#radial-gradient-16);}.cls-19{fill:url(#radial-gradient-17);}.cls-20{fill:url(#radial-gradient-18);}.cls-21{fill:url(#radial-gradient-19);}.cls-22{fill:url(#radial-gradient-20);}.cls-23{fill:url(#radial-gradient-21);}.cls-24{fill:url(#radial-gradient-22);}.cls-25{fill:url(#radial-gradient-23);}.cls-26{fill:url(#radial-gradient-24);}</style><linearGradient id="linear-gradient" x1="42.47" y1="148.32" x2="42.47" gradientUnits="userSpaceOnUse"><stop offset="0.57" stop-color="#001330"/><stop offset="0.64" stop-color="#001330" stop-opacity="0.98"/><stop offset="0.71" stop-color="#001330" stop-opacity="0.97"/><stop offset="0.78" stop-color="#001330" stop-opacity="0.91"/><stop offset="0.8" stop-color="#001330" stop-opacity="0.89"/><stop offset="0.87" stop-color="#02658e" stop-opacity="0.76"/><stop offset="0.91" stop-color="#02658e" stop-opacity="0.57"/><stop offset="0.95" stop-color="#02658e" stop-opacity="0.32"/><stop offset="1" stop-color="#02658e" stop-opacity="0.02"/><stop offset="1" stop-color="#02658e" stop-opacity="0"/></linearGradient><radialGradient id="radial-gradient" cx="-575.72" cy="-2223.77" r="59.47" gradientTransform="translate(-497.84 -2138.42) rotate(180)" gradientUnits="userSpaceOnUse"><stop offset="0.34"/><stop offset="0.41" stop-color="#050505"/><stop offset="0.51" stop-color="#131313"/><stop offset="0.6" stop-color="#2b2b2b"/><stop offset="0.71" stop-color="#4c4c4c"/><stop offset="0.81" stop-color="#777"/><stop offset="0.92" stop-color="#aaa"/><stop offset="1" stop-color="#d6d6d6"/></radialGradient><radialGradient id="radial-gradient-2" cx="-575.72" cy="-2223.77" r="59.47" xlink:href="#radial-gradient"/><radialGradient id="radial-gradient-3" cx="-575.72" cy="-2223.77" r="59.47" xlink:href="#radial-gradient"/><radialGradient id="radial-gradient-4" cx="-575.72" cy="-2223.77" r="59.47" xlink:href="#radial-gradient"/><radialGradient id="radial-gradient-5" cx="-575.72" cy="-2223.77" r="59.47" xlink:href="#radial-gradient"/><radialGradient id="radial-gradient-6" cx="-575.72" cy="-2223.77" r="59.47" xlink:href="#radial-gradient"/><radialGradient id="radial-gradient-8" cx="101.15" cy="58.75" r="94.69" gradientTransform="matrix(1, 0, 0, 1, 0, 0)" xlink:href="#radial-gradient"/><radialGradient id="radial-gradient-9" cx="101.15" cy="58.75" r="94.69" gradientTransform="matrix(1, 0, 0, 1, 0, 0)" xlink:href="#radial-gradient"/><radialGradient id="radial-gradient-10" cx="101.15" cy="58.75" r="94.69" gradientTransform="matrix(1, 0, 0, 1, 0, 0)" xlink:href="#radial-gradient"/><radialGradient id="radial-gradient-11" cx="-458.32" cy="-2230.87" r="94.69" xlink:href="#radial-gradient"/><radialGradient id="radial-gradient-12" cx="101.15" cy="58.75" r="94.69" gradientTransform="matrix(1, 0, 0, 1, 0, 0)" xlink:href="#radial-gradient"/><radialGradient id="radial-gradient-13" cx="23.86" cy="79.56" r="98.27" gradientTransform="translate(-22.3 -8.32)" xlink:href="#radial-gradient"/><radialGradient id="radial-gradient-14" cx="23.86" cy="79.56" r="98.27" gradientTransform="translate(-22.3 -8.32)" xlink:href="#radial-gradient"/><radialGradient id="radial-gradient-15" cx="23.86" cy="79.56" r="98.27" gradientTransform="translate(-22.3 -8.32)" xlink:href="#radial-gradient"/><radialGradient id="radial-gradient-16" cx="-16.08" cy="70.96" r="98.27" gradientTransform="translate(-20.56 -10.16)" xlink:href="#radial-gradient"/><radialGradient id="radial-gradient-17" cx="-16.08" cy="70.96" r="98.27" gradientTransform="translate(-22.3 -8.32)" xlink:href="#radial-gradient"/><radialGradient id="radial-gradient-18" cx="-16.08" cy="70.96" r="98.27" gradientTransform="translate(-22.3 -8.32)" xlink:href="#radial-gradient"/><radialGradient id="radial-gradient-19" cx="-16.08" cy="70.96" r="98.27" gradientTransform="translate(-22.3 -8.32)" xlink:href="#radial-gradient"/><radialGradient id="radial-gradient-20" cx="-16.08" cy="70.96" r="98.27" gradientTransform="translate(-22.3 -8.32)" xlink:href="#radial-gradient"/><radialGradient id="radial-gradient-21" cx="-16.08" cy="70.96" r="98.27" gradientTransform="translate(-22.3 -8.32)" xlink:href="#radial-gradient"/><radialGradient id="radial-gradient-22" cx="-16.08" cy="70.96" r="98.27" gradientTransform="translate(-22.3 -8.32)" xlink:href="#radial-gradient"/><radialGradient id="radial-gradient-23" cx="-16.08" cy="70.96" r="98.27" gradientTransform="translate(-22.3 -8.32)" xlink:href="#radial-gradient"/><radialGradient id="radial-gradient-24" cx="-16.08" cy="70.96" r="98.27" gradientTransform="translate(-22.3 -8.32)" xlink:href="#radial-gradient"/></defs><title>19418 [Converted]</title><g class="cls-1"><g id="Layer_1" data-name="Layer 1"><polyline class="cls-2" points="0 0 84.94 0 84.94 148.32 0 148.32 0 0"/><g class="cls-3"><path class="cls-4" d="M44.25,67.39A4.41,4.41,0,1,0,39.84,63,4.42,4.42,0,0,0,44.25,67.39Zm0-6.12A1.71,1.71,0,1,1,42.54,63,1.71,1.71,0,0,1,44.25,61.27Z" transform="translate(1.74 -1.84)"/><path class="cls-5" d="M44.25,70.79A7.81,7.81,0,1,0,36.44,63,7.82,7.82,0,0,0,44.25,70.79Zm0-14.27A6.46,6.46,0,1,1,37.79,63,6.47,6.47,0,0,1,44.25,56.52Z" transform="translate(1.74 -1.84)"/><path class="cls-6" d="M31.3,62.1c0,.29,0,.59,0,.88v0h1.2c0,.27,0,.54,0,.8l-1.2.09c0,.29.06.59.1.88l1.18-.17c0,.27.08.53.14.8l-1.17.24c.06.29.13.58.21.86l1.15-.32c.08.25.16.51.25.76L32,67.36c.1.27.21.55.33.82l1.1-.48c.1.24.22.48.34.72L32.74,69c.13.26.28.52.43.77l1-.63c.14.23.29.45.44.67l-1,.7c.17.23.35.47.54.7l.93-.76c.17.21.35.41.53.6l-.88.83c.2.21.41.42.63.62l.82-.88c.2.18.4.36.61.53l-.76.93c.23.19.46.37.7.54l.7-1c.22.16.44.31.67.45l-.62,1c.25.15.51.3.77.43l.55-1.06c.24.12.48.24.73.34l-.48,1.1c.27.12.55.23.83.33l.4-1.13c.25.09.5.17.76.24l-.32,1.15.86.21.24-1.17c.26,0,.53.1.8.13l-.16,1.19c.29,0,.58.07.88.09l.08-1.2q.38,0,.78,0h0V76l.89,0-.09-1.19.8-.08L46,75.83q.43-.06.87-.15l-.24-1.17.78-.19.32,1.15c.28-.08.57-.17.85-.27l-.41-1.13.75-.29.48,1.1c.27-.12.54-.25.8-.39l-.56-1.06.7-.4.63,1c.25-.16.5-.32.74-.49l-.7-1,.64-.49.76.93c.23-.18.45-.38.67-.58l-.83-.88a7.66,7.66,0,0,0,.57-.57l.88.82c.2-.21.4-.44.58-.66l-.93-.76c.17-.21.33-.42.48-.64l1,.69c.17-.24.33-.49.48-.74l-1-.62c.14-.23.27-.47.39-.71l1.07.56c.13-.27.26-.53.38-.81l-1.1-.47c.1-.25.2-.5.29-.75l1.13.4c.1-.28.19-.56.27-.85l-1.16-.32c.08-.25.14-.51.2-.78L57,65.6q.09-.43.15-.87l-1.19-.16c0-.27.06-.53.08-.8l1.19.08q0-.43,0-.87H56c0-.28,0-.54,0-.81l1.19-.08c0-.29,0-.59-.09-.88l-1.19.16c0-.26-.08-.53-.13-.79L57,60.33c-.06-.29-.13-.58-.21-.86l-1.15.32c-.08-.26-.16-.52-.25-.77l1.13-.4c-.1-.28-.21-.55-.32-.82l-1.1.48c-.11-.25-.23-.49-.35-.73L55.76,57c-.13-.26-.28-.52-.43-.77l-1,.62c-.14-.23-.29-.45-.45-.67l1-.69c-.17-.24-.35-.48-.53-.71l-.93.76-.53-.6.87-.82c-.2-.22-.41-.43-.62-.63l-.82.88c-.2-.18-.4-.36-.61-.53l.76-.93c-.23-.19-.47-.37-.71-.54l-.69,1c-.22-.16-.44-.31-.67-.45l.62-1-.77-.44-.55,1.07-.73-.35.48-1.1-.83-.32-.4,1.13c-.25-.09-.5-.17-.76-.24l.32-1.16c-.28-.08-.57-.15-.86-.21l-.24,1.17-.8-.13L46,50.12c-.29,0-.58-.07-.88-.09L45,51.23c-.26,0-.52,0-.79,0h0V50c-.29,0-.59,0-.88,0l.08,1.19-.8.08-.17-1.18q-.44.06-.87.15l.24,1.17c-.26,0-.52.12-.78.19l-.32-1.15a8.16,8.16,0,0,0-.84.26l.4,1.13c-.26.09-.5.19-.75.3l-.48-1.1c-.27.12-.54.24-.8.38l.56,1.07c-.24.12-.47.25-.7.39l-.63-1c-.25.16-.5.32-.74.49l.7,1c-.22.16-.44.32-.64.49l-.76-.93c-.23.18-.45.38-.67.58l.82.88q-.28.27-.57.57l-.88-.83c-.2.22-.39.44-.58.67l.93.76c-.16.21-.33.42-.48.64l-1-.69c-.17.24-.34.49-.49.74l1,.62-.39.7L32.72,57c-.13.26-.26.53-.38.8l1.1.48c-.1.24-.2.49-.29.75L32,58.64c-.1.27-.19.56-.27.84l1.16.32c-.08.26-.14.52-.2.78l-1.17-.24c-.06.29-.11.58-.15.88l1.19.16c0,.26-.06.53-.08.8Zm13-8.87A9.75,9.75,0,1,1,34.49,63,9.76,9.76,0,0,1,44.25,53.23Z" transform="translate(1.74 -1.84)"/></g><g class="cls-3"><path class="cls-7" d="M28.17,48.57a2.78,2.78,0,1,0-2.77-2.78A2.77,2.77,0,0,0,28.17,48.57Z" transform="translate(1.74 -1.84)"/><path class="cls-8" d="M18.91,44.81a8,8,0,0,0-.05,1h1.36a7.94,7.94,0,0,0,.21,1.77l-1.34.31c.08.32.17.64.28,1l1.29-.45A8.23,8.23,0,0,0,21.43,50l-1.16.72a9,9,0,0,0,.56.81l1.08-.84A8.82,8.82,0,0,0,23.16,52L22.29,53c.26.21.53.4.8.58l.75-1.15a7.94,7.94,0,0,0,1.59.81L25,54.54c.31.11.62.21.94.29l.34-1.33a7.26,7.26,0,0,0,1.76.24l0,1.37a8.19,8.19,0,0,0,1,0l-.12-1.37a7.75,7.75,0,0,0,1.75-.34l.42,1.3a7.9,7.9,0,0,0,.92-.35l-.55-1.25a7.66,7.66,0,0,0,1.54-.9l.82,1.1a8.93,8.93,0,0,0,.75-.63l-.93-1a7.87,7.87,0,0,0,1.17-1.34l1.13.77a9,9,0,0,0,.52-.84l-1.21-.65a7.93,7.93,0,0,0,.67-1.65l1.32.36c.08-.32.16-.64.21-1L36,47.09a7.86,7.86,0,0,0,.11-1.3c0-.16,0-.32,0-.48l1.37-.08c0-.33-.06-.66-.11-1L36,44.48a8.28,8.28,0,0,0-.49-1.72l1.26-.52c-.12-.3-.27-.6-.42-.89L35.16,42a7.73,7.73,0,0,0-1-1.45l1-.91a9.22,9.22,0,0,0-.69-.71l-.93,1a8.22,8.22,0,0,0-1.43-1l.68-1.19c-.29-.16-.59-.31-.89-.44l-.55,1.25a8,8,0,0,0-1.7-.53l.26-1.34a8,8,0,0,0-1-.13l-.11,1.36-.66,0a8.2,8.2,0,0,0-1.12.08l-.2-1.35a8.3,8.3,0,0,0-1,.19l.34,1.33a7.65,7.65,0,0,0-1.67.63l-.62-1.22a8.92,8.92,0,0,0-.85.49l.75,1.15a7.9,7.9,0,0,0-1.37,1.14l-1-1a9.19,9.19,0,0,0-.65.75l1.08.84A8.14,8.14,0,0,0,21,42.43l-1.24-.58c-.14.3-.26.61-.37.92l1.3.44A7.32,7.32,0,0,0,20.27,45ZM28.17,39a6.81,6.81,0,1,1-6.8,6.8A6.81,6.81,0,0,1,28.17,39Z" transform="translate(1.74 -1.84)"/></g><g class="cls-3"><path class="cls-9" d="M17.19,74.92a7.13,7.13,0,1,0-7.13-7.12A7.13,7.13,0,0,0,17.19,74.92Zm0-12.76a5.64,5.64,0,1,1-5.63,5.64A5.64,5.64,0,0,1,17.19,62.16Z" transform="translate(1.74 -1.84)"/><path class="cls-5" d="M8.51,67.81a8.69,8.69,0,0,0,.09,1.26l-1.48.22c0,.19.07.38.1.57l1.46-.3A10,10,0,0,0,9,70.78l-1.4.51c.07.18.14.36.22.53l1.37-.59a9.12,9.12,0,0,0,.58,1.12l-1.27.79.32.48,1.23-.86a8.26,8.26,0,0,0,.79,1l-1.09,1,.41.41,1-1.09a7.45,7.45,0,0,0,1,.8l-.87,1.23.49.32.79-1.27a9.12,9.12,0,0,0,1.12.58l-.6,1.38c.18.07.36.15.54.21l.52-1.4a9.88,9.88,0,0,0,1.21.35l-.31,1.46a5.86,5.86,0,0,0,.58.1l.22-1.47a10.36,10.36,0,0,0,1.26.1V78h.05l.53,0-.08-1.49a8.68,8.68,0,0,0,1.26-.15l.29,1.46.56-.13-.37-1.44a9.27,9.27,0,0,0,1.19-.41l.58,1.37a5.05,5.05,0,0,0,.53-.24L21,75.58a8,8,0,0,0,1.09-.64L23,76.17c.16-.1.31-.22.47-.34l-.92-1.18a8.39,8.39,0,0,0,.94-.85l1.08,1c.13-.14.26-.28.38-.43l-1.13-1a8.36,8.36,0,0,0,.75-1l1.26.8a5.09,5.09,0,0,0,.3-.5L24.78,72a7,7,0,0,0,.53-1.15l1.4.53c.07-.18.13-.37.19-.55l-1.42-.45a8.44,8.44,0,0,0,.28-1.23l1.48.24c0-.19.05-.39.07-.58l-1.49-.15a8.11,8.11,0,0,0,.05-.86c0-.14,0-.27,0-.4l1.49-.07c0-.19,0-.38,0-.57l-1.49.15a8.58,8.58,0,0,0-.21-1.25l1.44-.36a5.15,5.15,0,0,0-.16-.56l-1.42.45A8.06,8.06,0,0,0,25,64l1.35-.65-.27-.51-1.31.73a8,8,0,0,0-.69-1.06l1.19-.91-.37-.45-1.13,1a9.45,9.45,0,0,0-.89-.9l1-1.13-.45-.36-.92,1.18a8.33,8.33,0,0,0-1-.7l.74-1.3a5.12,5.12,0,0,0-.52-.27L21,60a8.1,8.1,0,0,0-1.18-.48l.46-1.42-.56-.16-.37,1.44a10,10,0,0,0-1.24-.22l.15-1.48-.57,0-.08,1.49h-.43a7.56,7.56,0,0,0-.83,0l-.14-1.48a5.73,5.73,0,0,0-.58.07l.23,1.47a8.46,8.46,0,0,0-1.23.29l-.44-1.43c-.19,0-.37.12-.55.18l.52,1.4a9.23,9.23,0,0,0-1.15.53l-.72-1.31-.5.29.8,1.27a7.43,7.43,0,0,0-1,.75l-1-1.15-.43.39,1,1.09a8.29,8.29,0,0,0-.85.93l-1.18-.92c-.12.15-.23.3-.34.46l1.23.86a7.37,7.37,0,0,0-.65,1.08l-1.34-.67c-.09.18-.17.36-.24.53l1.37.59a8.08,8.08,0,0,0-.41,1.2l-1.45-.39c0,.19-.09.38-.13.57l1.46.3a10.16,10.16,0,0,0-.16,1.25L7,67.22c0,.19,0,.38,0,.57v0Zm8.68-8.13A8.12,8.12,0,1,1,9.07,67.8,8.13,8.13,0,0,1,17.19,59.68Z" transform="translate(1.74 -1.84)"/></g><g class="cls-3"><path class="cls-10" d="M27.56,89a9.5,9.5,0,1,0,9.5,9.5A9.51,9.51,0,0,0,27.56,89Zm0,18.47a9,9,0,1,1,9-9A9,9,0,0,1,27.56,107.47Z" transform="translate(1.74 -1.84)"/><path class="cls-11" d="M27.56,90.39a8.11,8.11,0,1,0,8.11,8.11A8.12,8.12,0,0,0,27.56,90.39Zm0,15.68a7.57,7.57,0,1,1,7.57-7.57A7.57,7.57,0,0,1,27.56,106.07Z" transform="translate(1.74 -1.84)"/><path class="cls-12" d="M27.56,93.17a5.33,5.33,0,1,0,5.33,5.33A5.33,5.33,0,0,0,27.56,93.17Zm0,10.12a4.79,4.79,0,1,1,4.79-4.79A4.8,4.8,0,0,1,27.56,103.29Z" transform="translate(1.74 -1.84)"/><path class="cls-13" d="M27.56,95.05A3.45,3.45,0,1,0,31,98.5,3.44,3.44,0,0,0,27.56,95.05Z" transform="translate(1.74 -1.84)"/><path class="cls-14" d="M8.7,95.42a18.64,18.64,0,0,0-.25,3.08v0h2.8a16.23,16.23,0,0,0,.36,3.36l-2.75.58a19,19,0,0,0,.89,3l2.62-1a15.77,15.77,0,0,0,1.55,3L11.56,109a20.45,20.45,0,0,0,1.9,2.44l2.08-1.89a16.28,16.28,0,0,0,2.52,2.24L16.42,114a19.85,19.85,0,0,0,2.65,1.6l1.25-2.52a15.78,15.78,0,0,0,3.16,1.18l-.7,2.72a19.66,19.66,0,0,0,3,.53l.25-2.8c.49,0,1,.07,1.48.07a17,17,0,0,0,1.9-.11l.32,2.78a18.37,18.37,0,0,0,3-.6l-.77-2.7a17.07,17.07,0,0,0,3.13-1.26l1.31,2.48a19.19,19.19,0,0,0,2.61-1.66l-1.7-2.24a16.9,16.9,0,0,0,2.47-2.31L42,111a17.92,17.92,0,0,0,1.83-2.49l-2.39-1.48a16,16,0,0,0,1.47-3l2.65,1a19.43,19.43,0,0,0,.81-3l-2.77-.51a16.27,16.27,0,0,0,.28-3c0-.13,0-.26,0-.39l2.81-.06A19.73,19.73,0,0,0,46.35,95l-2.76.52a16,16,0,0,0-1-3.24l2.6-1.08a19.34,19.34,0,0,0-1.42-2.75l-2.39,1.49a16.17,16.17,0,0,0-2.07-2.67l2-1.94a18.79,18.79,0,0,0-2.31-2.06l-1.7,2.24a16.46,16.46,0,0,0-2.88-1.74l1.19-2.55a19.79,19.79,0,0,0-2.9-1.08L32,82.81a16.59,16.59,0,0,0-3.32-.58l.19-2.8c-.44,0-.88,0-1.32,0s-1.19,0-1.77.08l.26,2.79a16.45,16.45,0,0,0-3.31.66l-.83-2.68A18.8,18.8,0,0,0,19,81.39l1.26,2.52a16,16,0,0,0-2.85,1.81l-1.75-2.2a20.46,20.46,0,0,0-2.26,2.11l2.08,1.89a15.75,15.75,0,0,0-2,2.72l-2.43-1.43A20.49,20.49,0,0,0,9.73,91.6l2.63,1a15.55,15.55,0,0,0-.89,3.26Zm18.86,17a14,14,0,1,1,14-14A14,14,0,0,1,27.56,112.45Z" transform="translate(1.74 -1.84)"/></g><g class="cls-3"><path class="cls-15" d="M57.13,100.92a7.29,7.29,0,1,0,7.29,7.28A7.3,7.3,0,0,0,57.13,100.92Zm0,10.1A2.82,2.82,0,1,1,60,108.2,2.82,2.82,0,0,1,57.13,111Z" transform="translate(1.74 -1.84)"/><path class="cls-16" d="M57.13,95.3A12.91,12.91,0,1,0,70,108.2,12.92,12.92,0,0,0,57.13,95.3Zm0,23.58A10.68,10.68,0,1,1,67.8,108.2,10.69,10.69,0,0,1,57.13,118.88Z" transform="translate(1.74 -1.84)"/><path class="cls-17" d="M78.52,109.67c0-.49,0-1,0-1.47v0h-2c0-.45,0-.89-.06-1.33l2-.14c0-.49-.09-1-.15-1.46l-2,.28c-.07-.44-.14-.88-.23-1.31l1.94-.41c-.1-.47-.22-1-.35-1.42l-1.91.54c-.12-.43-.25-.85-.4-1.27l1.86-.67c-.16-.45-.34-.91-.54-1.35l-1.82.79c-.17-.41-.37-.8-.57-1.19l1.76-.92c-.23-.43-.47-.86-.72-1.28l-1.69,1c-.23-.38-.48-.75-.74-1.11l1.62-1.15c-.28-.39-.58-.78-.88-1.16L72.2,95.9c-.28-.35-.58-.68-.88-1l1.45-1.36c-.33-.36-.68-.7-1-1L70.38,94c-.32-.3-.66-.59-1-.87l1.25-1.54c-.38-.31-.77-.61-1.17-.89l-1.14,1.63c-.36-.26-.73-.5-1.11-.73l1-1.7c-.42-.25-.85-.49-1.28-.72l-.91,1.77c-.39-.2-.79-.4-1.2-.57l.79-1.82c-.45-.2-.91-.38-1.37-.54l-.66,1.87c-.42-.15-.84-.28-1.27-.4l.53-1.91c-.47-.13-.94-.24-1.42-.34l-.4,1.93c-.43-.08-.87-.15-1.31-.21L60,87c-.48-.06-1-.11-1.46-.14l-.13,2c-.43,0-.86,0-1.29,0h0v-2c-.49,0-1,0-1.46,0l.13,2c-.44,0-.88.08-1.32.14l-.27-2c-.48.07-1,.16-1.44.25l.4,1.94c-.43.09-.86.2-1.29.32l-.53-1.91c-.47.13-.94.28-1.4.45l.67,1.86c-.42.15-.83.32-1.23.5l-.8-1.82c-.44.19-.89.4-1.32.63l.92,1.76c-.39.2-.78.42-1.16.65L46,89.9c-.41.25-.83.52-1.22.8l1.15,1.63c-.36.25-.72.52-1.06.8l-1.26-1.54c-.37.31-.74.63-1.1,1L43.83,94l-.94.94-1.45-1.35c-.33.35-.65.73-1,1.1L42,96c-.28.34-.54.69-.8,1.06l-1.63-1.15c-.28.4-.55.81-.8,1.22l1.7,1c-.23.38-.45.77-.65,1.17l-1.77-.92c-.22.43-.43.88-.62,1.33l1.82.79c-.18.4-.34.81-.49,1.23l-1.87-.66c-.16.46-.31.93-.44,1.4l1.91.53c-.12.42-.23.85-.32,1.29l-1.93-.4c-.1.48-.18,1-.25,1.44l2,.27c-.06.44-.1.88-.13,1.32l-2-.13c0,.47,0,1,0,1.43v0h2c0,.45,0,.89.05,1.33l-2,.13c0,.49.08,1,.15,1.46l2-.27c.06.44.13.88.22,1.31l-1.93.4c.1.48.21,1,.34,1.42l1.91-.53c.12.43.26.85.4,1.26l-1.86.67c.16.46.34.91.54,1.36l1.81-.79c.18.4.37.8.58,1.19l-1.76.92c.22.43.46.86.72,1.27l1.69-1c.23.38.48.75.73,1.11l-1.62,1.15c.28.39.58.78.89,1.16L42,120.49c.28.35.58.68.88,1l-1.45,1.36c.33.36.68.7,1,1l1.36-1.46c.32.3.66.6,1,.88l-1.25,1.54c.37.3.77.6,1.16.88l1.15-1.62c.36.25.73.5,1.11.73l-1,1.69c.41.26.84.5,1.27.72l.92-1.76c.39.2.79.4,1.2.57l-.79,1.82c.45.2.9.38,1.36.54l.67-1.87c.41.15.83.28,1.26.4l-.53,1.91c.47.13,1,.25,1.42.35l.4-1.94c.43.09.87.16,1.31.22l-.26,2c.48.07,1,.12,1.45.15l.13-2c.44,0,.88,0,1.32,0h0v2c.49,0,1,0,1.46-.05l-.13-2c.44,0,.89-.07,1.32-.13l.27,2c.48-.07,1-.15,1.44-.25l-.4-1.94c.44-.09.87-.2,1.29-.32l.54,1.91c.46-.13.93-.28,1.39-.44l-.66-1.87c.41-.15.83-.31,1.23-.49l.79,1.82q.67-.28,1.32-.63l-.91-1.76c.39-.2.78-.42,1.15-.65l1,1.7c.41-.26.82-.53,1.22-.81l-1.15-1.62c.36-.26.72-.52,1.06-.8l1.25,1.54c.38-.31.75-.63,1.11-1l-1.36-1.45c.32-.3.64-.61.94-.94l1.45,1.36c.33-.35.66-.73,1-1.1l-1.54-1.26c.28-.34.55-.69.8-1.06l1.63,1.15c.28-.4.55-.81.8-1.22l-1.69-1c.23-.38.44-.77.65-1.16l1.76.91c.23-.43.44-.88.63-1.32L75,116c.18-.41.34-.82.49-1.24l1.87.66c.16-.45.31-.92.44-1.39l-1.91-.54c.12-.42.23-.85.32-1.29l1.94.4c.1-.47.18-1,.24-1.44l-2-.27c.06-.43.11-.87.14-1.32ZM57.13,124.32A16.12,16.12,0,1,1,73.25,108.2,16.14,16.14,0,0,1,57.13,124.32Z" transform="translate(1.74 -1.84)"/></g><g class="cls-3"><circle class="cls-18" cx="45.49" cy="126.17" r="4.59"/><path class="cls-19" d="M59.07,129.64c0-.54.08-1.08.08-1.63v0H56.89a12.82,12.82,0,0,0-.34-2.92l2.21-.51a14.72,14.72,0,0,0-.45-1.57l-2.14.74a12.94,12.94,0,0,0-1.27-2.65l1.92-1.2c-.29-.46-.6-.91-.93-1.34l-1.79,1.4A13.7,13.7,0,0,0,52,117.82l1.43-1.75a12.34,12.34,0,0,0-1.32-1L50.91,117a12.87,12.87,0,0,0-2.62-1.32l.78-2.12c-.51-.19-1-.35-1.57-.49l-.54,2.2a12.84,12.84,0,0,0-2.92-.39l.05-2.26a12.68,12.68,0,0,0-1.63,0l.18,2.25a13.73,13.73,0,0,0-2.88.57l-.69-2.15a14.13,14.13,0,0,0-1.53.58l.92,2.07a13.46,13.46,0,0,0-2.55,1.48l-1.35-1.82c-.43.33-.85.68-1.25,1l1.53,1.66a13.21,13.21,0,0,0-1.92,2.23l-1.87-1.29a15.35,15.35,0,0,0-.85,1.4l2,1.07a13.22,13.22,0,0,0-1.1,2.73l-2.18-.6a12.32,12.32,0,0,0-.35,1.6l2.23.36a12.73,12.73,0,0,0-.18,2.15c0,.27,0,.53,0,.8l-2.26.13a14.59,14.59,0,0,0,.18,1.62l2.23-.37A13.52,13.52,0,0,0,31.6,133l-2.09.86c.21.5.44,1,.7,1.48l2-1.09a12.72,12.72,0,0,0,1.69,2.41l-1.7,1.5a15.74,15.74,0,0,0,1.14,1.17l1.53-1.67a12.75,12.75,0,0,0,2.38,1.74l-1.13,2a15.29,15.29,0,0,0,1.46.73l.91-2.07a13.29,13.29,0,0,0,2.81.87l-.42,2.22a14.66,14.66,0,0,0,1.62.22l.18-2.25c.36,0,.72,0,1.08,0a12.86,12.86,0,0,0,1.87-.13l.31,2.24a14.78,14.78,0,0,0,1.61-.32L47,140.75a12.79,12.79,0,0,0,2.75-1l1,2a14.33,14.33,0,0,0,1.41-.82L50.94,139a13.12,13.12,0,0,0,2.26-1.88l1.64,1.57a15.59,15.59,0,0,0,1.06-1.23l-1.78-1.39a13.74,13.74,0,0,0,1.54-2.51l2.05,1a15.54,15.54,0,0,0,.61-1.52l-2.14-.73a13.69,13.69,0,0,0,.64-2.88Zm-15.32,9.62A11.25,11.25,0,1,1,55,128,11.26,11.26,0,0,1,43.75,139.26Z" transform="translate(1.74 -1.84)"/></g><g class="cls-3"><path class="cls-20" d="M61.91,79.88A11.78,11.78,0,1,0,73.69,91.65,11.77,11.77,0,0,0,61.91,79.88Zm0,21.08a9.31,9.31,0,1,1,9.31-9.31A9.3,9.3,0,0,1,61.9,101Z" transform="translate(1.74 -1.84)"/><path class="cls-21" d="M76.26,91.62a14.35,14.35,0,0,0-.16-2.08l2.44-.36c-.05-.32-.11-.63-.17-.94L76,88.73a15.27,15.27,0,0,0-.58-2l2.32-.85c-.11-.3-.23-.6-.35-.89l-2.27,1a15.42,15.42,0,0,0-1-1.85l2.1-1.3c-.17-.27-.35-.54-.53-.8l-2,1.42a12.7,12.7,0,0,0-1.32-1.61l1.81-1.7c-.22-.23-.45-.46-.68-.68l-1.7,1.8a13.63,13.63,0,0,0-1.62-1.33l1.43-2-.8-.53-1.31,2.1a14,14,0,0,0-1.84-1l1-2.27-.89-.35-.85,2.31a15,15,0,0,0-2-.58l.51-2.41c-.31-.07-.63-.13-1-.17l-.36,2.44A14.35,14.35,0,0,0,62,77.31V74.84h-.08l-.88,0,.13,2.47a13,13,0,0,0-2.08.26l-.48-2.43-.93.22.62,2.39a13.56,13.56,0,0,0-2,.67l-1-2.27c-.29.12-.58.26-.87.4l1.09,2.22a14.8,14.8,0,0,0-1.8,1l-1.4-2c-.26.18-.52.37-.77.57l1.52,1.95a15.91,15.91,0,0,0-1.56,1.4L49.78,80a8.72,8.72,0,0,0-.64.71L51,82.33A12.77,12.77,0,0,0,49.78,84l-2.09-1.33c-.17.27-.34.55-.49.83l2.16,1.2a13,13,0,0,0-.88,1.89l-2.31-.87c-.11.3-.22.61-.31.91l2.35.74a15.34,15.34,0,0,0-.47,2L45.3,89c0,.32-.09.64-.12,1l2.46.25a13.55,13.55,0,0,0-.08,1.43c0,.22,0,.44,0,.65l-2.47.11c0,.32,0,.65.07,1l2.46-.25A14.08,14.08,0,0,0,48,95.18l-2.39.6c.07.31.16.62.26.92L48.22,96A14.24,14.24,0,0,0,49,97.9L46.77,99l.44.85,2.16-1.21a14.26,14.26,0,0,0,1.15,1.75l-2,1.5.61.75L51,101a13.79,13.79,0,0,0,1.48,1.48l-1.63,1.87c.24.2.49.41.74.6l1.52-2a14.62,14.62,0,0,0,1.74,1.16l-1.22,2.15c.28.15.56.3.85.44l1.09-2.22a13.14,13.14,0,0,0,1.94.79l-.75,2.35c.3.1.61.19.92.27l.61-2.39a13.73,13.73,0,0,0,2,.37l-.26,2.45c.32,0,.64.06,1,.08l.12-2.47c.23,0,.48,0,.72,0a12.26,12.26,0,0,0,1.36-.07l.24,2.46c.31,0,.64-.07.95-.12l-.37-2.43a15.34,15.34,0,0,0,2-.47l.73,2.36c.3-.09.61-.2.9-.31l-.85-2.31a15.44,15.44,0,0,0,1.89-.87L70,106.4c.28-.15.56-.31.82-.48l-1.3-2.1a11.77,11.77,0,0,0,1.67-1.23l1.61,1.89c.24-.21.48-.42.71-.64l-1.7-1.8a13.69,13.69,0,0,0,1.4-1.54l2,1.53.57-.77-2-1.42a11.6,11.6,0,0,0,1.07-1.79L77,99.16c.14-.29.28-.58.4-.87l-2.27-1a13.48,13.48,0,0,0,.68-2l2.39.63c.08-.31.15-.62.22-.94L76,94.54a13.94,13.94,0,0,0,.27-2.07l2.47.14c0-.32,0-.64,0-1v0ZM61.91,105.07A13.42,13.42,0,1,1,75.32,91.65,13.43,13.43,0,0,1,61.91,105.07Z" transform="translate(1.74 -1.84)"/></g><g class="cls-3"><path class="cls-22" d="M36.54,57.68A16.79,16.79,0,1,0,19.75,40.9,16.8,16.8,0,0,0,36.54,57.68Zm0-32.63A15.85,15.85,0,1,1,20.69,40.9,15.87,15.87,0,0,1,36.54,25.05Z" transform="translate(1.74 -1.84)"/><path class="cls-23" d="M36.54,55.22A14.33,14.33,0,1,0,22.21,40.9,14.34,14.34,0,0,0,36.54,55.22Zm0-27.71A13.39,13.39,0,1,1,23.15,40.9,13.4,13.4,0,0,1,36.54,27.51Z" transform="translate(1.74 -1.84)"/><path class="cls-24" d="M36.54,50.31a9.41,9.41,0,1,0-9.41-9.41A9.43,9.43,0,0,0,36.54,50.31Zm0-17.88a8.47,8.47,0,1,1-8.47,8.47A8.48,8.48,0,0,1,36.54,32.43Z" transform="translate(1.74 -1.84)"/><path class="cls-25" d="M36.54,47a6.1,6.1,0,1,0-6.1-6.1A6.11,6.11,0,0,0,36.54,47Z" transform="translate(1.74 -1.84)"/><path class="cls-26" d="M69.87,46.34a34.12,34.12,0,0,0,.44-5.44v-.09l-5,0a28.27,28.27,0,0,0-.63-5.93l4.85-1A32.87,32.87,0,0,0,68,28.63l-4.63,1.8a28.59,28.59,0,0,0-2.74-5.3l4.16-2.72a33.17,33.17,0,0,0-3.35-4.31l-3.67,3.35a29,29,0,0,0-4.46-4l2.9-4a34.19,34.19,0,0,0-4.68-2.82l-2.21,4.45A28.41,28.41,0,0,0,43.74,13L45,8.19a33.75,33.75,0,0,0-5.39-.93l-.44,4.94q-1.29-.12-2.61-.12a28.6,28.6,0,0,0-3.36.2l-.57-4.93a33.8,33.8,0,0,0-5.37,1.07l1.37,4.78a27.82,27.82,0,0,0-5.53,2.23L20.75,11a34.21,34.21,0,0,0-4.6,3l3,3.95A29,29,0,0,0,14.8,22L11,18.75a34.15,34.15,0,0,0-3.24,4.4L12,25.76a29.58,29.58,0,0,0-2.6,5.37L4.76,29.45a33.21,33.21,0,0,0-1.43,5.28l4.88.9a28.62,28.62,0,0,0-.49,5.27c0,.23,0,.45,0,.68l-5,.12a34,34,0,0,0,.56,5.43l4.88-.91a28.38,28.38,0,0,0,1.7,5.72l-4.58,1.9a33.29,33.29,0,0,0,2.5,4.86l4.22-2.62a28.73,28.73,0,0,0,3.66,4.71l-3.6,3.43a34.34,34.34,0,0,0,4.08,3.64l3-4A28.4,28.4,0,0,0,24.3,67l-2.11,4.49a33.31,33.31,0,0,0,5.13,1.92l1.35-4.78a28.48,28.48,0,0,0,5.88,1l-.34,5c.77,0,1.55.08,2.33.08,1,0,2.09,0,3.13-.15l-.46-4.94a28.19,28.19,0,0,0,5.85-1.15l1.47,4.73a33.15,33.15,0,0,0,5.07-2l-2.21-4.44a28.54,28.54,0,0,0,5-3.21l3.09,3.9a33.59,33.59,0,0,0,4-3.73L57.83,60.3a29,29,0,0,0,3.54-4.81L65.65,58A33.45,33.45,0,0,0,68,53.09L63.4,51.3A27.92,27.92,0,0,0,65,45.55ZM36.54,16.24A24.66,24.66,0,1,1,11.88,40.9,24.68,24.68,0,0,1,36.54,16.24Z" transform="translate(1.74 -1.84)"/></g></g></g></svg>